<svg width="22" height="22" viewBox="0 0 22 22" fill="none" xmlns="http://www.w3.org/2000/svg">
<path d="M15.93 0.344482H6.06904C2.71697 0.344482 -0.000488281 2.99428 -0.000488281 6.2629V15.8783C-0.000488281 19.147 2.71697 21.7968 6.06904 21.7968H15.93C19.2821 21.7968 21.9995 19.147 21.9995 15.8783V6.2629C21.9995 2.99428 19.2821 0.344482 15.93 0.344482ZM20.0469 15.8783C20.0469 18.0997 18.1918 19.8927 15.93 19.8927H6.06904C3.79093 19.8927 1.95217 18.0839 1.95217 15.8783V6.2629C1.95217 4.05738 3.8072 2.24853 6.06904 2.24853H15.93C18.2081 2.24853 20.0469 4.05738 20.0469 6.2629V15.8783Z" fill="#393939"/>
<path d="M10.9993 5.54883C7.87505 5.54883 5.32031 8.02409 5.32031 11.0706C5.32031 14.117 7.85877 16.6082 10.9993 16.6082C14.1236 16.6082 16.6783 14.1329 16.6783 11.0706C16.6783 8.02409 14.1236 5.54883 10.9993 5.54883ZM10.9993 14.7041C8.94901 14.7041 7.27298 13.0857 7.27298 11.0864C7.28925 9.07132 8.94901 7.45288 10.9993 7.45288C13.0496 7.45288 14.7256 9.07132 14.7256 11.0706C14.7256 13.0698 13.0496 14.7041 10.9993 14.7041Z" fill="#393939"/>
<path d="M16.9061 3.93042C16.5318 3.93042 16.1576 4.07322 15.8972 4.34296C15.6368 4.59684 15.4741 4.96178 15.4741 5.32672C15.4741 5.69167 15.6206 6.05661 15.8972 6.31048C16.1576 6.56435 16.5318 6.72303 16.9061 6.72303C17.2803 6.72303 17.6546 6.58022 17.915 6.31048C18.1753 6.05661 18.338 5.69167 18.338 5.32672C18.338 4.96178 18.1916 4.59684 17.915 4.34296C17.6546 4.07322 17.2966 3.93042 16.9061 3.93042Z" fill="#393939"/>
</svg>
